<svg xmlns="http://www.w3.org/2000/svg" xmlns:xlink="http://www.w3.org/1999/xlink" width="128" height="128.008" viewBox="0 0 33.867 33.869"><defs><linearGradient id="a"><stop offset="0" style="stop-color:#000;stop-opacity:1"/><stop offset="1" style="stop-color:#000;stop-opacity:0"/></linearGradient><linearGradient id="b"><stop offset="0" style="stop-color:#fff;stop-opacity:0"/><stop offset="1" style="stop-color:#fff;stop-opacity:.653"/></linearGradient><linearGradient xlink:href="#a" id="d" x1="579.332" x2="738.659" y1="686.914" y2="895.022" gradientUnits="userSpaceOnUse"/><radialGradient xlink:href="#b" id="c" cx="161.679" cy="195.047" r="56.079" fx="161.679" fy="195.047" gradientTransform="translate(-450.283 -531.516) scale(1.62649)" gradientUnits="userSpaceOnUse"/><filter id="e" width="1.548" height="1.547" x="-.274" y="-.273" style="color-interpolation-filters:sRGB"><feGaussianBlur stdDeviation="29.01"/></filter></defs><g style="stroke-width:3.34958887"><g style="stroke-width:3.34958887" transform="matrix(.2993 0 0 .2978 -34.378 -43.416)"><circle cx="171.439" cy="202.367" r="56.079" style="opacity:1;vector-effect:none;fill:#980098;fill-opacity:1;stroke:none;stroke-width:33.49589157;stroke-linejoin:round;stroke-miterlimit:4;stroke-dasharray:none;stroke-opacity:1"/><path d="M210.523 161.55c1.171 17.935-5.425 37.84-39.084 40.817 19.412 27.666 39.945 23.414 54.892 13.427a56.577 56.577 0 0 0 1.686-13.427 56.577 56.577 0 0 0-17.494-40.818z" style="opacity:1;vector-effect:none;fill:#ff9800;fill-opacity:1;stroke:none;stroke-width:33.49589157;stroke-linejoin:round;stroke-miterlimit:4;stroke-dasharray:none;stroke-opacity:1"/><path d="M171.44 145.79a56.577 56.577 0 0 0-15.853 2.3c16.138 7.946 30.116 23.611 15.852 54.277 33.667-2.978 40.25-22.888 39.073-40.827a56.577 56.577 0 0 0-39.073-15.75z" style="opacity:1;vector-effect:none;fill:red;fill-opacity:1;stroke:none;stroke-width:33.49589157;stroke-linejoin:round;stroke-miterlimit:4;stroke-dasharray:none;stroke-opacity:1"/><path d="M171.44 202.367c-14.267 30.673-.279 46.33 15.863 54.274a56.577 56.577 0 0 0 39.024-40.833c-14.947 9.98-35.48 14.218-54.888-13.44z" style="opacity:1;vector-effect:none;fill:#ff0;fill-opacity:1;stroke:none;stroke-width:33.49589157;stroke-linejoin:round;stroke-miterlimit:4;stroke-dasharray:none;stroke-opacity:1"/><path d="M171.44 202.367c-33.668 2.98-40.25 22.889-39.074 40.828a56.577 56.577 0 0 0 39.073 15.75 56.577 56.577 0 0 0 15.852-2.3c-16.138-7.946-30.115-23.611-15.852-54.278z" style="opacity:1;vector-effect:none;fill:#009800;fill-opacity:1;stroke:none;stroke-width:33.49589157;stroke-linejoin:round;stroke-miterlimit:4;stroke-dasharray:none;stroke-opacity:1"/><path d="M138.298 181.32c-7.925.114-15.348 3.343-21.75 7.62a56.577 56.577 0 0 0-1.686 13.427 56.577 56.577 0 0 0 17.494 40.818c-1.172-17.936 5.424-37.84 39.083-40.818-11.097-15.815-22.563-21.202-33.141-21.048z" style="opacity:1;vector-effect:none;fill:#00f;fill-opacity:1;stroke:none;stroke-width:33.49589157;stroke-linejoin:round;stroke-miterlimit:4;stroke-dasharray:none;stroke-opacity:1"/><path d="M155.576 148.094a56.577 56.577 0 0 0-39.025 40.833c14.947-9.981 35.481-14.218 54.888 13.44 14.266-30.672.278-46.328-15.863-54.273z" style="opacity:1;vector-effect:none;fill:#980098;fill-opacity:1;stroke:none;stroke-width:33.49589157;stroke-linejoin:round;stroke-miterlimit:4;stroke-dasharray:none;stroke-opacity:1"/><circle cx="-171.439" cy="-202.367" r="56.551" style="opacity:1;vector-effect:none;fill:url(#c);fill-opacity:1;stroke:none;stroke-width:33.49589157;stroke-linejoin:round;stroke-miterlimit:4;stroke-dasharray:none;stroke-opacity:1" transform="scale(-1)"/><g style="stroke-width:3.34958887"><path d="m768.242 655.142-129.25 47.124-.353 186.322-86.975 13.435 75.53 75.53c6.9.683 13.83 1.03 20.765 1.039 118.045 0 213.739-95.694 213.738-213.738-.017-5.424 1.078-10.2.648-15.606z" style="opacity:.322;fill:url(#d);fill-opacity:1;fill-rule:evenodd;stroke:none;stroke-width:3.34958863px;stroke-linecap:butt;stroke-linejoin:miter;stroke-opacity:1" transform="scale(.26458)"/><g style="fill:#fff;stroke-width:4.77649832"><path d="M514.727 656.498 627.189 792.27v88.058H567.08c-20.687 0-20.686 30.918.004 30.918h152.524c20.687 0 20.512-30.918 0-30.918h-61.151v-87.385l110.465-136.445Zm147.378 56.836c10.891 0 19.72 8.831 19.72 19.72 0 10.898-8.829 19.727-19.72 19.727-10.897 0-19.726-8.829-19.726-19.726 0-10.89 8.829-19.721 19.726-19.721z" style="opacity:.122;fill:#000;fill-opacity:1;stroke-width:3.34958887;filter:url(#e)" transform="scale(.26458)"/><path d="M514.046 655.142 625.19 790.27v89.737h-60.11c-20.687 0-20.686 30.324.004 30.324h152.524c20.687 0 20.503-29.745 0-30.324h-59.48v-89.064l110.114-135.8Zm146.06 56.192c10.89 0 19.718 8.831 19.718 19.72 0 10.898-8.828 19.727-19.719 19.727-10.897 0-19.726-8.829-19.726-19.726 0-10.89 8.829-19.721 19.726-19.721z" style="fill:#fff;stroke-width:3.34958887" transform="scale(.26458)"/></g></g></g><path d="M164.968 186.007h15.743v13.494h-15.743z" style="opacity:.44200003;vector-effect:none;fill:#fff;fill-opacity:1;stroke:none;stroke-width:33.49589157;stroke-linejoin:round;stroke-miterlimit:4;stroke-dasharray:none;stroke-opacity:0" transform="matrix(.2993 0 0 .2978 -34.378 -43.416)"/></g></svg>